<mxfile host="app.diagrams.net" modified="2023-11-28T08:40:44.491Z" agent="Mozilla/5.0 (Windows NT 10.0; Win64; x64) AppleWebKit/537.36 (KHTML, like Gecko) Chrome/119.0.0.0 Safari/537.36" etag="JBYy2bvmoWzCTHVzu6_h" version="22.1.4" type="device">
  <diagram name="Pagina-1" id="CzpY_dVXvTYlkWnSQU5L">
    <mxGraphModel dx="1112" dy="1186" grid="0" gridSize="10" guides="1" tooltips="1" connect="1" arrows="1" fold="1" page="0" pageScale="1" pageWidth="827" pageHeight="1169" math="0" shadow="0">
      <root>
        <mxCell id="0" />
        <mxCell id="1" parent="0" />
        <mxCell id="VEIZykrdETVEvf5O9bYu-16" style="edgeStyle=none;curved=1;rounded=0;orthogonalLoop=1;jettySize=auto;html=1;fontSize=12;startSize=8;endSize=8;" edge="1" parent="1" source="VEIZykrdETVEvf5O9bYu-2">
          <mxGeometry relative="1" as="geometry">
            <mxPoint x="98" y="-17" as="targetPoint" />
          </mxGeometry>
        </mxCell>
        <mxCell id="VEIZykrdETVEvf5O9bYu-18" style="edgeStyle=none;curved=1;rounded=0;orthogonalLoop=1;jettySize=auto;html=1;fontSize=12;startSize=8;endSize=8;" edge="1" parent="1" source="VEIZykrdETVEvf5O9bYu-2">
          <mxGeometry relative="1" as="geometry">
            <mxPoint x="98" y="195" as="targetPoint" />
          </mxGeometry>
        </mxCell>
        <mxCell id="VEIZykrdETVEvf5O9bYu-2" value="classe persoon" style="swimlane;fontStyle=0;childLayout=stackLayout;horizontal=1;startSize=30;horizontalStack=0;resizeParent=1;resizeParentMax=0;resizeLast=0;collapsible=1;marginBottom=0;whiteSpace=wrap;html=1;fontSize=16;" vertex="1" parent="1">
          <mxGeometry x="-112" y="9" width="140" height="180" as="geometry" />
        </mxCell>
        <mxCell id="VEIZykrdETVEvf5O9bYu-3" value="voornaam" style="text;strokeColor=none;fillColor=none;align=left;verticalAlign=middle;spacingLeft=4;spacingRight=4;overflow=hidden;points=[[0,0.5],[1,0.5]];portConstraint=eastwest;rotatable=0;whiteSpace=wrap;html=1;fontSize=16;" vertex="1" parent="VEIZykrdETVEvf5O9bYu-2">
          <mxGeometry y="30" width="140" height="30" as="geometry" />
        </mxCell>
        <mxCell id="VEIZykrdETVEvf5O9bYu-4" value="achternaam" style="text;strokeColor=none;fillColor=none;align=left;verticalAlign=middle;spacingLeft=4;spacingRight=4;overflow=hidden;points=[[0,0.5],[1,0.5]];portConstraint=eastwest;rotatable=0;whiteSpace=wrap;html=1;fontSize=16;" vertex="1" parent="VEIZykrdETVEvf5O9bYu-2">
          <mxGeometry y="60" width="140" height="30" as="geometry" />
        </mxCell>
        <mxCell id="VEIZykrdETVEvf5O9bYu-17" style="edgeStyle=none;curved=1;rounded=0;orthogonalLoop=1;jettySize=auto;html=1;entryX=1;entryY=0;entryDx=0;entryDy=0;fontSize=12;startSize=8;endSize=8;" edge="1" parent="VEIZykrdETVEvf5O9bYu-2" source="VEIZykrdETVEvf5O9bYu-5" target="VEIZykrdETVEvf5O9bYu-6">
          <mxGeometry relative="1" as="geometry" />
        </mxCell>
        <mxCell id="VEIZykrdETVEvf5O9bYu-5" value="geboortedatum" style="text;strokeColor=none;fillColor=none;align=left;verticalAlign=middle;spacingLeft=4;spacingRight=4;overflow=hidden;points=[[0,0.5],[1,0.5]];portConstraint=eastwest;rotatable=0;whiteSpace=wrap;html=1;fontSize=16;" vertex="1" parent="VEIZykrdETVEvf5O9bYu-2">
          <mxGeometry y="90" width="140" height="30" as="geometry" />
        </mxCell>
        <mxCell id="VEIZykrdETVEvf5O9bYu-6" value="telefoonnummer" style="text;strokeColor=none;fillColor=none;html=1;align=center;verticalAlign=middle;whiteSpace=wrap;rounded=0;fontSize=16;" vertex="1" parent="VEIZykrdETVEvf5O9bYu-2">
          <mxGeometry y="120" width="140" height="30" as="geometry" />
        </mxCell>
        <mxCell id="VEIZykrdETVEvf5O9bYu-7" value="adress(meerdan1)" style="text;strokeColor=none;fillColor=none;html=1;align=center;verticalAlign=middle;whiteSpace=wrap;rounded=0;fontSize=16;" vertex="1" parent="VEIZykrdETVEvf5O9bYu-2">
          <mxGeometry y="150" width="140" height="30" as="geometry" />
        </mxCell>
        <mxCell id="VEIZykrdETVEvf5O9bYu-8" value="classe student" style="swimlane;fontStyle=0;childLayout=stackLayout;horizontal=1;startSize=30;horizontalStack=0;resizeParent=1;resizeParentMax=0;resizeLast=0;collapsible=1;marginBottom=0;whiteSpace=wrap;html=1;fontSize=16;" vertex="1" parent="1">
          <mxGeometry x="105" y="-79" width="140" height="120" as="geometry" />
        </mxCell>
        <mxCell id="VEIZykrdETVEvf5O9bYu-9" value="inschrijvingstatus" style="text;strokeColor=none;fillColor=none;align=left;verticalAlign=middle;spacingLeft=4;spacingRight=4;overflow=hidden;points=[[0,0.5],[1,0.5]];portConstraint=eastwest;rotatable=0;whiteSpace=wrap;html=1;fontSize=16;" vertex="1" parent="VEIZykrdETVEvf5O9bYu-8">
          <mxGeometry y="30" width="140" height="30" as="geometry" />
        </mxCell>
        <mxCell id="VEIZykrdETVEvf5O9bYu-10" value="international" style="text;strokeColor=none;fillColor=none;align=left;verticalAlign=middle;spacingLeft=4;spacingRight=4;overflow=hidden;points=[[0,0.5],[1,0.5]];portConstraint=eastwest;rotatable=0;whiteSpace=wrap;html=1;fontSize=16;" vertex="1" parent="VEIZykrdETVEvf5O9bYu-8">
          <mxGeometry y="60" width="140" height="30" as="geometry" />
        </mxCell>
        <mxCell id="VEIZykrdETVEvf5O9bYu-11" value="voltijd/deeltijds" style="text;strokeColor=none;fillColor=none;align=left;verticalAlign=middle;spacingLeft=4;spacingRight=4;overflow=hidden;points=[[0,0.5],[1,0.5]];portConstraint=eastwest;rotatable=0;whiteSpace=wrap;html=1;fontSize=16;" vertex="1" parent="VEIZykrdETVEvf5O9bYu-8">
          <mxGeometry y="90" width="140" height="30" as="geometry" />
        </mxCell>
        <mxCell id="VEIZykrdETVEvf5O9bYu-12" value="classe professor" style="swimlane;fontStyle=0;childLayout=stackLayout;horizontal=1;startSize=30;horizontalStack=0;resizeParent=1;resizeParentMax=0;resizeLast=0;collapsible=1;marginBottom=0;whiteSpace=wrap;html=1;fontSize=16;" vertex="1" parent="1">
          <mxGeometry x="105" y="130" width="140" height="150" as="geometry" />
        </mxCell>
        <mxCell id="VEIZykrdETVEvf5O9bYu-13" value="salaris" style="text;strokeColor=none;fillColor=none;align=left;verticalAlign=middle;spacingLeft=4;spacingRight=4;overflow=hidden;points=[[0,0.5],[1,0.5]];portConstraint=eastwest;rotatable=0;whiteSpace=wrap;html=1;fontSize=16;" vertex="1" parent="VEIZykrdETVEvf5O9bYu-12">
          <mxGeometry y="30" width="140" height="30" as="geometry" />
        </mxCell>
        <mxCell id="VEIZykrdETVEvf5O9bYu-14" value="lijst van corses" style="text;strokeColor=none;fillColor=none;align=left;verticalAlign=middle;spacingLeft=4;spacingRight=4;overflow=hidden;points=[[0,0.5],[1,0.5]];portConstraint=eastwest;rotatable=0;whiteSpace=wrap;html=1;fontSize=16;" vertex="1" parent="VEIZykrdETVEvf5O9bYu-12">
          <mxGeometry y="60" width="140" height="30" as="geometry" />
        </mxCell>
        <mxCell id="VEIZykrdETVEvf5O9bYu-15" value="eventuele loonverhoging" style="text;strokeColor=none;fillColor=none;align=left;verticalAlign=middle;spacingLeft=4;spacingRight=4;overflow=hidden;points=[[0,0.5],[1,0.5]];portConstraint=eastwest;rotatable=0;whiteSpace=wrap;html=1;fontSize=16;" vertex="1" parent="VEIZykrdETVEvf5O9bYu-12">
          <mxGeometry y="90" width="140" height="60" as="geometry" />
        </mxCell>
        <mxCell id="VEIZykrdETVEvf5O9bYu-19" value="adress bevat" style="swimlane;fontStyle=0;childLayout=stackLayout;horizontal=1;startSize=30;horizontalStack=0;resizeParent=1;resizeParentMax=0;resizeLast=0;collapsible=1;marginBottom=0;whiteSpace=wrap;html=1;fontSize=16;" vertex="1" parent="1">
          <mxGeometry x="-114" y="228" width="140" height="150" as="geometry" />
        </mxCell>
        <mxCell id="VEIZykrdETVEvf5O9bYu-20" value="straat" style="text;strokeColor=none;fillColor=none;align=left;verticalAlign=middle;spacingLeft=4;spacingRight=4;overflow=hidden;points=[[0,0.5],[1,0.5]];portConstraint=eastwest;rotatable=0;whiteSpace=wrap;html=1;fontSize=16;" vertex="1" parent="VEIZykrdETVEvf5O9bYu-19">
          <mxGeometry y="30" width="140" height="30" as="geometry" />
        </mxCell>
        <mxCell id="VEIZykrdETVEvf5O9bYu-21" value="stad" style="text;strokeColor=none;fillColor=none;align=left;verticalAlign=middle;spacingLeft=4;spacingRight=4;overflow=hidden;points=[[0,0.5],[1,0.5]];portConstraint=eastwest;rotatable=0;whiteSpace=wrap;html=1;fontSize=16;" vertex="1" parent="VEIZykrdETVEvf5O9bYu-19">
          <mxGeometry y="60" width="140" height="30" as="geometry" />
        </mxCell>
        <mxCell id="VEIZykrdETVEvf5O9bYu-22" value="postcode" style="text;strokeColor=none;fillColor=none;align=left;verticalAlign=middle;spacingLeft=4;spacingRight=4;overflow=hidden;points=[[0,0.5],[1,0.5]];portConstraint=eastwest;rotatable=0;whiteSpace=wrap;html=1;fontSize=16;" vertex="1" parent="VEIZykrdETVEvf5O9bYu-19">
          <mxGeometry y="90" width="140" height="30" as="geometry" />
        </mxCell>
        <mxCell id="VEIZykrdETVEvf5O9bYu-23" value="land" style="text;strokeColor=none;fillColor=none;html=1;align=center;verticalAlign=middle;whiteSpace=wrap;rounded=0;fontSize=16;" vertex="1" parent="VEIZykrdETVEvf5O9bYu-19">
          <mxGeometry y="120" width="140" height="30" as="geometry" />
        </mxCell>
        <mxCell id="VEIZykrdETVEvf5O9bYu-24" style="edgeStyle=none;curved=1;rounded=0;orthogonalLoop=1;jettySize=auto;html=1;fontSize=12;startSize=8;endSize=8;" edge="1" parent="1" source="VEIZykrdETVEvf5O9bYu-7" target="VEIZykrdETVEvf5O9bYu-19">
          <mxGeometry relative="1" as="geometry" />
        </mxCell>
        <mxCell id="VEIZykrdETVEvf5O9bYu-25" value="classe course" style="swimlane;fontStyle=0;childLayout=stackLayout;horizontal=1;startSize=30;horizontalStack=0;resizeParent=1;resizeParentMax=0;resizeLast=0;collapsible=1;marginBottom=0;whiteSpace=wrap;html=1;fontSize=16;" vertex="1" parent="1">
          <mxGeometry x="400" y="-94" width="140" height="120" as="geometry" />
        </mxCell>
        <mxCell id="VEIZykrdETVEvf5O9bYu-26" value="naam" style="text;strokeColor=none;fillColor=none;align=left;verticalAlign=middle;spacingLeft=4;spacingRight=4;overflow=hidden;points=[[0,0.5],[1,0.5]];portConstraint=eastwest;rotatable=0;whiteSpace=wrap;html=1;fontSize=16;" vertex="1" parent="VEIZykrdETVEvf5O9bYu-25">
          <mxGeometry y="30" width="140" height="30" as="geometry" />
        </mxCell>
        <mxCell id="VEIZykrdETVEvf5O9bYu-27" value="max studenenten" style="text;strokeColor=none;fillColor=none;align=left;verticalAlign=middle;spacingLeft=4;spacingRight=4;overflow=hidden;points=[[0,0.5],[1,0.5]];portConstraint=eastwest;rotatable=0;whiteSpace=wrap;html=1;fontSize=16;" vertex="1" parent="VEIZykrdETVEvf5O9bYu-25">
          <mxGeometry y="60" width="140" height="30" as="geometry" />
        </mxCell>
        <mxCell id="VEIZykrdETVEvf5O9bYu-28" value="Item 3" style="text;strokeColor=none;fillColor=none;align=left;verticalAlign=middle;spacingLeft=4;spacingRight=4;overflow=hidden;points=[[0,0.5],[1,0.5]];portConstraint=eastwest;rotatable=0;whiteSpace=wrap;html=1;fontSize=16;" vertex="1" parent="VEIZykrdETVEvf5O9bYu-25">
          <mxGeometry y="90" width="140" height="30" as="geometry" />
        </mxCell>
      </root>
    </mxGraphModel>
  </diagram>
</mxfile>
